<?xml version="1.0" encoding="iso-8859-1"?>
<!-- Generator: Adobe Illustrator 19.0.0, SVG Export Plug-In . SVG Version: 6.00 Build 0)  -->
<svg version="1.1" id="Layer_1" xmlns="http://www.w3.org/2000/svg" xmlns:xlink="http://www.w3.org/1999/xlink" x="0px" y="0px"
	 viewBox="0 0 512.001 512.001" style="enable-background:new 0 0 512.001 512.001;" xml:space="preserve">
<path style="fill:#E08F03;" d="M476.178,247.673V382.56c0,39.976-32.404,72.38-72.38,72.38H96.309
	c-39.976,0-72.384-32.404-72.384-72.38V247.673H476.178z"/>
<path style="fill:#F89E04;" d="M476.178,247.673V382.56c0,39.976-32.404,72.38-72.38,72.38H96.309
	c-39.976,0-72.384-32.404-72.384-72.38V247.673H476.178z"/>
<g>
	<path style="fill:#E08F03;" d="M464.173,247.673v122.887c0,39.976-32.404,72.38-72.38,72.38H84.304
		c-16.925,0-32.459-5.856-44.787-15.592c13.256,16.785,33.745,27.597,56.796,27.597h307.485c39.976,0,72.38-32.404,72.38-72.38
		V247.673H464.173z"/>
	<rect x="23.925" y="247.661" style="fill:#E08F03;" width="452.237" height="31.753"/>
</g>
<path style="fill:#FFBA45;" d="M512.001,225.959c0,11.989-9.724,21.713-21.713,21.713H271.765c-11.993,0-21.713-9.724-21.713-21.713
	l0,0c0-11.997,9.72-21.713,21.713-21.713h218.523C502.277,204.246,512.001,213.962,512.001,225.959L512.001,225.959z"/>
<path style="fill:#E08F03;" d="M497.326,205.431c0.756,2.211,1.189,4.57,1.189,7.038c0,11.993-9.724,21.717-21.713,21.717H258.278
	c-2.468,0-4.831-0.433-7.038-1.189c2.924,8.531,10.995,14.676,20.524,14.676h218.523c11.989,0,21.713-9.724,21.713-21.713
	C512.001,216.434,505.857,208.36,497.326,205.431z"/>
<path style="fill:#FFBA45;" d="M248.862,233.024c-3.903,11.338-16.259,17.362-27.601,13.455L14.65,175.312
	C3.308,171.409-2.716,159.05,1.19,147.712l0,0c3.907-11.338,16.262-17.362,27.601-13.459l206.616,71.171
	C246.745,209.327,252.769,221.686,248.862,233.024L248.862,233.024z"/>
<g>
	<path style="fill:#E08F03;" d="M221.262,229.32L14.65,158.153c-6.016-2.074-10.515-6.538-12.851-11.954
		c-0.214,0.499-0.429,0.994-0.608,1.513c-3.907,11.338,2.117,23.698,13.459,27.601l206.608,71.167
		c11.342,3.907,23.698-2.117,27.601-13.455c1.832-5.318,1.458-10.859-0.608-15.65C243.809,227.722,232.077,233.048,221.262,229.32z"
		/>
	<path style="fill:#E08F03;" d="M23.925,365.315v17.245c0,2.753,0.168,5.466,0.468,8.141l63.775,63.775
		c2.675,0.304,5.384,0.464,8.137,0.464h17.245L23.925,365.315z"/>
	<polygon style="fill:#E08F03;" points="201.603,454.94 226.521,454.94 23.925,252.343 23.925,277.262 	"/>
	<polygon style="fill:#E08F03;" points="314.571,454.94 339.489,454.94 132.222,247.673 107.304,247.673 	"/>
	<path style="fill:#E08F03;" d="M424.517,451.918c6.117-1.829,11.892-4.429,17.21-7.712L245.193,247.673h-24.922L424.517,451.918z"
		/>
	<path style="fill:#E08F03;" d="M358.161,247.673h-24.918l142.525,142.533c0.261-2.511,0.405-5.061,0.405-7.642v-16.871
		L358.161,247.673z"/>
	<polygon style="fill:#E08F03;" points="476.178,277.636 476.178,252.718 471.125,247.673 446.211,247.673 	"/>
	<polygon style="fill:#E08F03;" points="38.406,247.673 23.925,247.673 23.925,262.149 	"/>
	<polygon style="fill:#E08F03;" points="23.925,375.121 151.373,247.673 126.455,247.673 23.925,350.199 	"/>
	<path style="fill:#E08F03;" d="M264.341,247.673h-24.918L49.416,437.679c4.562,3.879,9.603,7.217,15.034,9.884L264.341,247.673z"/>
	<polygon style="fill:#E08F03;" points="377.313,247.673 352.395,247.673 145.123,454.94 170.042,454.94 	"/>
	<polygon style="fill:#E08F03;" points="476.178,261.775 476.178,247.673 465.358,247.673 258.091,454.94 283.009,454.94 	"/>
	<polygon style="fill:#E08F03;" points="395.977,454.94 476.178,374.743 476.178,349.828 371.059,454.94 	"/>
</g>
<path style="fill:#F04943;" d="M273.449,288.958c0,12.921-10.476,23.394-23.397,23.394l0,0c-12.917,0-23.394-10.473-23.394-23.394
	V80.451c0-12.917,10.476-23.394,23.394-23.394l0,0c12.921,0,23.397,10.473,23.397,23.394V288.958z"/>
<circle style="fill:#AA1921;" cx="250.04" cy="318.972" r="41.013"/>
<circle style="fill:#630F13;" cx="250.04" cy="318.972" r="23.32"/>
<g>
</g>
<g>
</g>
<g>
</g>
<g>
</g>
<g>
</g>
<g>
</g>
<g>
</g>
<g>
</g>
<g>
</g>
<g>
</g>
<g>
</g>
<g>
</g>
<g>
</g>
<g>
</g>
<g>
</g>
</svg>
